<?xml version="1.0" encoding="UTF-8"?>
<svg id="Layer_1" xmlns="http://www.w3.org/2000/svg" version="1.1" viewBox="0 0 666.67 666.67">
  <!-- Generator: Adobe Illustrator 29.5.1, SVG Export Plug-In . SVG Version: 2.1.0 Build 141)  -->
  <defs>
    <style>
      .st0 {
        fill: #fff;
      }

      .st1 {
        fill: #ff5c5a;
      }
    </style>
  </defs>
  <circle class="st1" cx="333.33" cy="333.33" r="333.33"/>
  <path class="st0" d="M185.48,152.22c-17.45,10.36-51.82,49.85-52.15,60.21v17.14c0,21.73,20.31,40.83,38.76,40.83,22.14,0,40.59-18.35,40.59-40.14,0,21.78,17.82,40.14,39.96,40.14s39.39-18.35,39.39-40.14c0,21.78,18.95,40.14,41.09,40.14h.4c22.15,0,41.09-18.35,41.09-40.14,0,21.78,17.25,40.14,39.39,40.14s39.96-18.35,39.96-40.14c0,21.78,18.45,40.14,40.6,40.14,18.44,0,38.75-19.1,38.75-40.83v-17.14c-.33-10.36-34.7-49.85-52.15-60.21-54.23-1.9-91.83-2.23-147.86-2.23-56.03,0-132.42.88-147.85,2.23h0ZM291.76,260.17c-2.12,3.69-4.74,7.07-7.79,10.03-8.36,8.17-19.82,13.24-32.45,13.24-12.15.01-23.83-4.75-32.52-13.25-3.03-2.97-5.33-6.14-7.44-9.83h0c-2.11,3.71-5.04,6.88-8.08,9.85-8.69,8.49-20.37,13.25-32.52,13.24-1.52,0-3.11-.42-4.39-.86-1.78,18.54-2.53,36.25-2.8,49.17v.07c-.04,6.56-.07,11.95-.1,19.45.34,38.9-3.85,126.07,17.15,147.49,32.55,7.59,92.43,11.04,152.51,11.06h.01c60.08-.02,119.96-3.48,152.51-11.06,21-21.42,16.81-108.59,17.15-147.49-.04-7.49-.07-12.89-.1-19.45v-.07c-.27-12.92-1.02-30.64-2.8-49.18-1.28.44-2.86.86-4.39.86-12.15.01-23.83-4.75-32.52-13.24-3.03-2.97-5.97-6.14-8.08-9.84h0c-2.11,3.69-4.41,6.86-7.44,9.83-8.68,8.5-20.37,13.26-32.52,13.24-12.63,0-24.09-5.07-32.45-13.24-3.05-2.97-5.67-6.34-7.79-10.03-2.09,3.69-4.69,7.06-7.72,10.03-8.69,8.5-20.37,13.25-32.52,13.24-.44,0-.88-.02-1.32-.03h-.01c-.44.01-.88.03-1.33.03-12.15.01-23.84-4.74-32.52-13.24-3.03-2.97-5.63-6.35-7.72-10.03h0ZM258.36,303.35v.02s.02,0,.02,0c13.22.03,24.97,0,39.53,15.89,11.46-1.2,23.43-1.8,35.41-1.78h0c11.98-.02,23.95.58,35.41,1.78,14.56-15.89,26.31-15.86,39.53-15.89h.02v-.02c6.25,0,31.24,0,48.66,48.92l18.71,67.11c13.86,49.92-4.44,51.15-27.27,51.19-33.85-1.26-52.6-25.84-52.6-50.43-18.74,3.07-40.6,4.61-62.46,4.61h-.01c-21.86,0-43.73-1.54-62.46-4.61,0,24.58-18.75,49.17-52.6,50.43-22.83-.04-41.13-1.26-27.27-51.19l18.71-67.11c17.42-48.91,42.41-48.91,48.66-48.91h0ZM333.33,341.8h0s-35.64,32.75-42.04,44.38l23.32-.93v20.34c0,.95,9.36.56,18.72.13h0c9.37.43,18.72.82,18.72-.13v-20.34l23.32.93c-6.4-11.63-42.04-44.36-42.04-44.36h0s0,0,0,0h0Z"/>
</svg>