<?xml version="1.0" encoding="UTF-8"?>
<svg id="Layer_1" xmlns="http://www.w3.org/2000/svg" version="1.1" viewBox="0 0 414.12 166.7">
  <!-- Generator: Adobe Illustrator 29.5.1, SVG Export Plug-In . SVG Version: 2.1.0 Build 141)  -->
  <defs>
    <style>
      .st0 {
        fill: #fff;
      }
    </style>
  </defs>
  <path class="st0" d="M19.86,26.63h17.55c3.84,0,6.95,3.11,6.95,6.95v10.26c0,3.84-3.11,6.95-6.95,6.95h-17.55v-24.17Z"/>
  <path class="st0" d="M19.86.48l-.33,17.88,19.13-.2c7.33-.07,13.32,5.85,13.32,13.18v13.66c0,7.24-5.84,13.12-13.07,13.18l-23.18.19c-2.28.02-4.14-1.82-4.14-4.1V.48H0v165.85c92.03,5.63,153.27-53.63,153.27-107.26V.48H19.86ZM96.33,24.65c0,1.1-.89,1.99-1.99,1.99h-23.83c-2.93,0-5.3,2.37-5.3,5.3v13.57c0,2.93,2.37,5.3,5.3,5.3h23.83c1.1,0,1.99.89,1.99,1.99v3.97c0,1.1-.89,1.99-1.99,1.99h-23.83c-7.5,0-13.57-6.08-13.57-13.57v-12.91c0-7.5,6.08-13.57,13.57-13.57h23.83c1.1,0,1.99.89,1.99,1.99v3.97ZM142.78,50.84c0,4.36-3.54,7.9-7.9,7.9h-30.04c-1.66,0-3.01-1.35-3.01-3.01v-1.93c0-1.66,1.35-3.01,3.01-3.01h28.37c.85,0,1.54-.7,1.52-1.55l-.09-6.06c-.01-.83-.69-1.5-1.52-1.5h-24.18c-4.36,0-7.9-3.54-7.9-7.9v-7.2c0-4.36,3.54-7.9,7.9-7.9h29.65c1.66,0,3.01,1.35,3.01,3.01v1.93c0,1.66-1.35,3.01-3.01,3.01h-27.86c-.84,0-1.52.68-1.52,1.52v4.5c0,.84.68,1.52,1.52,1.52h24.15c4.36,0,7.9,3.54,7.9,7.9v8.76Z"/>
  <g>
    <path class="st0" d="M189.53,18.99h4.76l14.66,39.76h-6.02l-11.02-32.07-11.02,32.07h-6.02l14.66-39.76ZM181.62,44.72h20.92v5.3h-20.92v-5.3Z"/>
    <path class="st0" d="M216.6,57.7c-1.83-.97-3.23-2.37-4.2-4.21-.97-1.84-1.45-4.06-1.45-6.67v-4.68c0-2.57.48-4.77,1.45-6.59.97-1.82,2.37-3.21,4.2-4.17s4.04-1.44,6.63-1.44c1.48,0,2.87.18,4.17.53,1.3.36,2.47.87,3.51,1.54,1.04.67,1.9,1.5,2.6,2.46l-4.02,3.61c-.8-.91-1.74-1.61-2.82-2.11-1.08-.49-2.2-.74-3.36-.74-2.15,0-3.82.6-5,1.8-1.19,1.2-1.78,2.9-1.78,5.09v4.68c0,2.24.59,3.97,1.76,5.2,1.18,1.22,2.85,1.83,5.02,1.83,1.18,0,2.31-.26,3.39-.79,1.08-.53,2-1.28,2.79-2.24l4.02,3.88c-.71.95-1.59,1.75-2.62,2.42-1.04.67-2.21,1.17-3.51,1.52-1.3.35-2.68.52-4.14.52-2.59,0-4.8-.48-6.63-1.45Z"/>
    <path class="st0" d="M241.86,57.7c-1.83-.97-3.23-2.37-4.2-4.21-.97-1.84-1.45-4.06-1.45-6.67v-4.68c0-2.57.48-4.77,1.45-6.59.97-1.82,2.37-3.21,4.2-4.17s4.04-1.44,6.63-1.44c1.48,0,2.87.18,4.17.53,1.3.36,2.47.87,3.51,1.54,1.04.67,1.9,1.5,2.6,2.46l-4.02,3.61c-.8-.91-1.74-1.61-2.82-2.11-1.08-.49-2.2-.74-3.36-.74-2.15,0-3.82.6-5,1.8-1.19,1.2-1.78,2.9-1.78,5.09v4.68c0,2.24.59,3.97,1.76,5.2,1.18,1.22,2.85,1.83,5.02,1.83,1.18,0,2.31-.26,3.39-.79,1.08-.53,2-1.28,2.79-2.24l4.02,3.88c-.71.95-1.59,1.75-2.62,2.42-1.04.67-2.21,1.17-3.51,1.52-1.3.35-2.68.52-4.14.52-2.59,0-4.8-.48-6.63-1.45Z"/>
    <path class="st0" d="M262.29,30.36h5.58v28.38h-5.58v-28.38ZM276.05,35.72c-.75-.31-1.61-.46-2.6-.46-1.77,0-3.14.49-4.12,1.46-.98.98-1.46,2.33-1.46,4.06l-.57-5.47c.88-1.7,2-3.01,3.39-3.95,1.38-.94,2.92-1.41,4.59-1.41,1.29,0,2.46.19,3.51.56,1.05.37,1.96.93,2.75,1.65l-3.64,4.92c-.49-.6-1.11-1.06-1.86-1.37Z"/>
    <path class="st0" d="M287.91,57.68c-1.86-.98-3.28-2.43-4.25-4.33-.98-1.9-1.46-4.21-1.46-6.9v-3.2c0-2.81.47-5.2,1.41-7.19.94-1.99,2.3-3.5,4.09-4.54,1.79-1.04,3.94-1.56,6.45-1.56,2.37,0,4.39.59,6.07,1.78,1.68,1.19,2.96,2.9,3.84,5.14.88,2.24,1.33,4.93,1.33,8.07v1.86h-19.14v-4.48h13.84c-.16-2.31-.76-4.12-1.79-5.4-1.03-1.29-2.41-1.93-4.14-1.93-2.12,0-3.75.69-4.91,2.08-1.16,1.39-1.74,3.35-1.74,5.88v3.61c0,2.35.62,4.16,1.86,5.41,1.24,1.26,3,1.89,5.28,1.89,1.13,0,2.25-.23,3.36-.68,1.11-.46,2.11-1.09,2.98-1.91l3.66,3.66c-1.4,1.35-2.98,2.39-4.73,3.13s-3.51,1.11-5.28,1.11c-2.62,0-4.87-.49-6.73-1.48Z"/>
    <path class="st0" d="M314.08,57.88c-1.47-.9-2.58-2.22-3.35-3.95-.77-1.73-1.15-3.81-1.15-6.23v-6.26c0-2.44.37-4.53,1.12-6.26.75-1.73,1.84-3.05,3.27-3.95,1.43-.9,3.15-1.35,5.15-1.35,1.68,0,3.21.44,4.61,1.31s2.52,2.11,3.38,3.69l-.57,5.8c0-1.2-.22-2.23-.66-3.09-.44-.86-1.07-1.51-1.9-1.96-.83-.45-1.84-.67-3.02-.67-1.84,0-3.27.57-4.28,1.72s-1.52,2.76-1.52,4.84v6.18c0,2.06.51,3.65,1.52,4.77s2.44,1.68,4.28,1.68c1.18,0,2.19-.23,3.02-.7.83-.46,1.46-1.13,1.9-2.01s.66-1.92.66-3.14l.38,5.99c-.57,1.4-1.49,2.58-2.78,3.53s-2.87,1.42-4.74,1.42c-2.08,0-3.85-.45-5.32-1.35ZM326.54,18.99h5.58v39.76h-5.58V18.99Z"/>
    <path class="st0" d="M337.96,18.99h5.58v5.58h-5.58v-5.58ZM337.96,30.36h5.58v28.38h-5.58v-28.38Z"/>
    <path class="st0" d="M347.2,30.36h12.8v5.03h-12.8v-5.03ZM351.72,56.98c-1.07-1.27-1.6-3.14-1.6-5.62v-29.26h5.58v29.31c0,.69.14,1.23.41,1.6.27.37.67.56,1.2.56h2.68v5.3h-3.23c-2.3,0-3.98-.63-5.04-1.9Z"/>
    <path class="st0" d="M369.91,57.68c-1.86-.98-3.28-2.43-4.25-4.33-.98-1.9-1.46-4.21-1.46-6.9v-3.2c0-2.81.47-5.2,1.41-7.19.94-1.99,2.3-3.5,4.09-4.54,1.79-1.04,3.94-1.56,6.45-1.56,2.37,0,4.39.59,6.07,1.78,1.68,1.19,2.96,2.9,3.84,5.14.88,2.24,1.33,4.93,1.33,8.07v1.86h-19.14v-4.48h13.84c-.16-2.31-.76-4.12-1.79-5.4-1.03-1.29-2.41-1.93-4.14-1.93-2.12,0-3.75.69-4.91,2.08-1.16,1.39-1.74,3.35-1.74,5.88v3.61c0,2.35.62,4.16,1.86,5.41,1.24,1.26,3,1.89,5.28,1.89,1.13,0,2.25-.23,3.36-.68,1.11-.46,2.11-1.09,2.98-1.91l3.66,3.66c-1.4,1.35-2.98,2.39-4.73,3.13s-3.51,1.11-5.28,1.11c-2.62,0-4.87-.49-6.73-1.48Z"/>
    <path class="st0" d="M396.09,57.88c-1.47-.9-2.58-2.22-3.35-3.95-.77-1.73-1.15-3.81-1.15-6.23v-6.26c0-2.44.37-4.53,1.12-6.26.75-1.73,1.84-3.05,3.27-3.95,1.43-.9,3.15-1.35,5.15-1.35,1.68,0,3.21.44,4.61,1.31s2.52,2.11,3.38,3.69l-.57,5.8c0-1.2-.22-2.23-.66-3.09-.44-.86-1.07-1.51-1.9-1.96-.83-.45-1.84-.67-3.02-.67-1.84,0-3.27.57-4.28,1.72s-1.52,2.76-1.52,4.84v6.18c0,2.06.51,3.65,1.52,4.77s2.44,1.68,4.28,1.68c1.18,0,2.19-.23,3.02-.7.83-.46,1.46-1.13,1.9-2.01s.66-1.92.66-3.14l.38,5.99c-.57,1.4-1.49,2.58-2.78,3.53s-2.87,1.42-4.74,1.42c-2.08,0-3.85-.45-5.32-1.35ZM408.54,18.99h5.58v39.76h-5.58V18.99Z"/>
    <path class="st0" d="M178.7,71.99h5.58v39.76h-5.58v-39.76ZM182.47,106.44h9c2.93,0,5.21-.76,6.82-2.28,1.61-1.52,2.42-3.67,2.42-6.44v-11.7c0-2.77-.81-4.92-2.42-6.44-1.61-1.52-3.89-2.28-6.82-2.28h-9v-5.3h8.83c3.19,0,5.92.56,8.18,1.67,2.26,1.11,3.98,2.73,5.17,4.87,1.18,2.13,1.78,4.7,1.78,7.71v11.27c0,3.01-.59,5.58-1.78,7.71-1.19,2.13-2.91,3.76-5.18,4.87-2.27,1.11-5,1.67-8.19,1.67h-8.8v-5.3Z"/>
    <path class="st0" d="M217.16,110.68c-1.86-.98-3.28-2.43-4.25-4.33-.98-1.9-1.46-4.21-1.46-6.9v-3.2c0-2.81.47-5.2,1.41-7.19.94-1.99,2.3-3.5,4.09-4.54,1.79-1.04,3.94-1.56,6.45-1.56,2.37,0,4.39.59,6.07,1.78,1.68,1.18,2.96,2.9,3.84,5.14.88,2.24,1.33,4.93,1.33,8.07v1.86h-19.14v-4.48h13.84c-.16-2.32-.76-4.12-1.79-5.4-1.03-1.29-2.41-1.93-4.14-1.93-2.12,0-3.75.69-4.91,2.08-1.16,1.39-1.74,3.34-1.74,5.88v3.61c0,2.35.62,4.16,1.86,5.41,1.24,1.26,3,1.89,5.28,1.89,1.13,0,2.25-.23,3.36-.68,1.11-.46,2.11-1.09,2.98-1.91l3.66,3.66c-1.4,1.35-2.98,2.39-4.73,3.13s-3.51,1.11-5.28,1.11c-2.62,0-4.87-.49-6.73-1.48Z"/>
    <path class="st0" d="M243.34,110.88c-1.47-.9-2.58-2.22-3.35-3.95-.77-1.73-1.15-3.81-1.15-6.23v-6.26c0-2.44.37-4.53,1.12-6.26.75-1.73,1.84-3.05,3.27-3.95,1.43-.9,3.15-1.35,5.15-1.35,1.68,0,3.21.44,4.61,1.31,1.39.88,2.52,2.11,3.38,3.69l-.57,5.8c0-1.2-.22-2.23-.66-3.09s-1.07-1.51-1.9-1.96c-.83-.45-1.84-.67-3.02-.67-1.84,0-3.27.57-4.28,1.72s-1.52,2.76-1.52,4.84v6.18c0,2.06.51,3.65,1.52,4.77s2.44,1.68,4.28,1.68c1.18,0,2.19-.23,3.02-.7.83-.46,1.46-1.13,1.9-2.01s.66-1.92.66-3.14l.38,5.99c-.57,1.4-1.49,2.58-2.78,3.53s-2.87,1.42-4.74,1.42c-2.08,0-3.85-.45-5.32-1.35ZM243.45,122.09c-1.69-.79-2.99-1.91-3.92-3.35l3.77-3.42c.73,1,1.6,1.78,2.61,2.32s2.07.82,3.19.82c2.13,0,3.78-.59,4.95-1.76,1.17-1.18,1.75-2.84,1.75-4.99v-28.36h5.58v27.54c0,2.61-.48,4.84-1.44,6.7s-2.35,3.27-4.17,4.24c-1.82.97-4.02,1.45-6.59,1.45-2.13,0-4.04-.4-5.73-1.19Z"/>
    <path class="st0" d="M267.21,83.36h5.58v28.38h-5.58v-28.38ZM280.97,88.72c-.75-.31-1.61-.46-2.6-.46-1.77,0-3.14.49-4.12,1.46-.98.98-1.46,2.33-1.46,4.06l-.57-5.47c.88-1.7,2-3.01,3.39-3.95,1.38-.94,2.92-1.41,4.59-1.41,1.29,0,2.46.19,3.51.56,1.05.37,1.96.93,2.75,1.65l-3.64,4.92c-.49-.6-1.11-1.06-1.86-1.37Z"/>
    <path class="st0" d="M292.83,110.68c-1.86-.98-3.28-2.43-4.25-4.33-.98-1.9-1.46-4.21-1.46-6.9v-3.2c0-2.81.47-5.2,1.41-7.19.94-1.99,2.3-3.5,4.09-4.54,1.79-1.04,3.94-1.56,6.45-1.56,2.37,0,4.39.59,6.07,1.78,1.68,1.18,2.96,2.9,3.84,5.14.88,2.24,1.33,4.93,1.33,8.07v1.86h-19.14v-4.48h13.84c-.16-2.32-.76-4.12-1.79-5.4-1.03-1.29-2.41-1.93-4.14-1.93-2.12,0-3.75.69-4.91,2.08-1.16,1.39-1.74,3.34-1.74,5.88v3.61c0,2.35.62,4.16,1.86,5.41,1.24,1.26,3,1.89,5.28,1.89,1.13,0,2.25-.23,3.36-.68,1.11-.46,2.11-1.09,2.98-1.91l3.66,3.66c-1.4,1.35-2.98,2.39-4.73,3.13s-3.51,1.11-5.28,1.11c-2.62,0-4.87-.49-6.73-1.48Z"/>
    <path class="st0" d="M320.22,110.68c-1.86-.98-3.28-2.43-4.25-4.33-.98-1.9-1.46-4.21-1.46-6.9v-3.2c0-2.81.47-5.2,1.41-7.19.94-1.99,2.3-3.5,4.09-4.54,1.79-1.04,3.94-1.56,6.45-1.56,2.37,0,4.39.59,6.07,1.78,1.68,1.18,2.96,2.9,3.84,5.14.88,2.24,1.33,4.93,1.33,8.07v1.86h-19.14v-4.48h13.84c-.16-2.32-.76-4.12-1.79-5.4-1.03-1.29-2.41-1.93-4.14-1.93-2.12,0-3.75.69-4.91,2.08-1.16,1.39-1.74,3.34-1.74,5.88v3.61c0,2.35.62,4.16,1.86,5.41,1.24,1.26,3,1.89,5.28,1.89,1.13,0,2.25-.23,3.36-.68,1.11-.46,2.11-1.09,2.98-1.91l3.66,3.66c-1.4,1.35-2.98,2.39-4.73,3.13s-3.51,1.11-5.28,1.11c-2.62,0-4.87-.49-6.73-1.48Z"/>
  </g>
</svg>